#!OML:ASF F:\VICON\USERDATA\INSTALL\rory3\rory3.ASF
:FULLY-SPECIFIED
:DEGREES
397
root -1.99491 17.424 -5.65666 0.043355 -29.3602 -0.910596
lowerback 5.5016 -0.649067 -3.22677
upperback 1.06142 -1.02517 1.46681
thorax -1.90699 -0.494469 3.39752
lowerneck -20.4248 -5.79201 -11.7098
upperneck 9.02504 -7.14544 16.5318
head 7.19446 -2.50513 6.5391
rclavicle -1.05418e-013 2.48481e-015
rhumerus 25.1251 -42.9872 -21.3069
rradius 93.7923
rwrist 0.185066
rhand -34.5175 4.56041
rfingers 7.12502
rthumb -7.67906 -25.2802
lclavicle -1.05418e-013 2.48481e-015
lhumerus 16.1326 48.6991 11.532
lradius 90.0132
lwrist 19.2669
lhand -27.3927 17.8131
lfingers 7.12502
lthumb -0.799343 47.7914
rfemur 1.39651 -5.84345 18.0935
rtibia 29.6032
rfoot -27.2783 -8.40092
rtoes -11.0648
lfemur -23.1617 14.4663 -13.4445
ltibia 35.4267
lfoot -4.67289 19.0961
ltoes -4.55699
398
root -2.01192 17.4215 -5.73105 0.17728 -29.7964 -1.15422
lowerback 5.55301 -0.746202 -2.93197
upperback 1.25741 -1.13794 1.5361
thorax -1.72892 -0.55915 3.30897
lowerneck -20.9877 -5.60034 -11.4362
upperneck 9.10768 -6.89785 16.4171
head 7.26257 -2.3603 6.48789
rclavicle 6.20208e-014 -1.72943e-014
rhumerus 25.3703 -43.7205 -21.5568
rradius 94.2948
rwrist 0.328179
rhand -34.6774 4.85023
rfingers 7.12502
rthumb -7.83345 -24.9846
lclavicle 6.20208e-014 -1.72943e-014
lhumerus 16.141 48.8679 11.8454
lradius 90.8226
lwrist 19
lhand -27.8825 17.2894
lfingers 7.12502
lthumb -1.27243 47.2654
rfemur 0.847906 -5.95201 18.3899
rtibia 30.0763
rfoot -27.0483 -7.94892
rtoes -11.6247
lfemur -23.2074 13.8983 -12.9093
ltibia 35.2465
lfoot -4.90537 18.1195
ltoes -3.50893
399
root -2.02611 17.4131 -5.80282 0.168119 -30.2188 -1.26778
lowerback 5.76383 -0.740896 -2.71503
upperback 1.39265 -1.12363 1.55512
thorax -1.71234 -0.555503 3.20781
lowerneck -21.2715 -5.48398 -11.1045
upperneck 9.02221 -6.7652 16.2234
head 7.24164 -2.2904 6.37974
rclavicle -6.86553e-014 1.39149e-015
rhumerus 25.1302 -44.4122 -21.4035
rradius 94.8681
rwrist 0.349762
rhand -34.8861 5.17883
rfingers 7.12502
rthumb -8.03485 -24.6484
lclavicle -6.86553e-014 1.39149e-015
lhumerus 16.6239 48.787 12.5563
lradius 91.4107
lwrist 18.7557
lhand -28.3999 16.7223
lfingers 7.12502
lthumb -1.77214 46.6947
rfemur 0.381911 -6.13398 18.5284
rtibia 30.6183
rfoot -26.8833 -7.3283
rtoes -12.0396
lfemur -23.1006 13.4149 -12.5327
ltibia 35.0834
lfoot -5.27398 16.7531
ltoes -2.00263
400
root -2.03871 17.3998 -5.8762 0.179683 -30.5987 -1.37461
lowerback 6.0042 -0.768705 -2.53041
upperback 1.46172 -1.15416 1.62338
thorax -1.77532 -0.571614 3.18049
lowerneck -21.3905 -5.33755 -10.8982
upperneck 8.90307 -6.57001 16.0481
head 7.17886 -2.20171 6.30804
rclavicle -4.11733e-014 -1.73937e-014
rhumerus 24.9566 -45.0005 -21.1911
rradius 95.4455
rwrist 0.34175
rhand -35.0335 5.10471
rfingers 7.12502
rthumb -8.17712 -24.7171
lclavicle -4.11733e-014 -1.73937e-014
lhumerus 16.9265 48.6133 13.099
lradius 91.9392
lwrist 18.584
lhand -28.6772 16.2048
lfingers 7.12502
lthumb -2.03997 46.1748
rfemur -0.0807927 -6.31031 18.6648
rtibia 31.1739
rfoot -26.8881 -6.55262
rtoes -11.9357
lfemur -22.9647 12.8672 -12.1889
ltibia 34.9183
lfoot -5.77274 15.2946
ltoes -2.01663
401
root -2.05185 17.3936 -5.95063 0.162987 -30.9679 -1.31943
lowerback 6.16295 -0.763186 -2.50707
upperback 1.52617 -1.14827 1.67074
thorax -1.79731 -0.569597 3.21842
lowerneck -21.5823 -5.2083 -10.8985
upperneck 8.92468 -6.38857 16.1052
head 7.19436 -2.10214 6.35433
rclavicle 7.23452e-014 5.36719e-015
rhumerus 24.7547 -45.6671 -20.8845
rradius 95.9986
rwrist 0.401381
rhand -35.1132 4.79741
rfingers 7.12502
rthumb -8.25401 -25.0213
lclavicle 7.23452e-014 5.36719e-015
lhumerus 17.4657 48.4281 13.8822
lradius 92.4004
lwrist 18.4413
lhand -29.104 15.6363
lfingers 7.12502
lthumb -2.45218 45.602
rfemur -0.569748 -6.5372 18.6459
rtibia 31.6921
rfoot -26.8798 -5.795
rtoes -11.6158
lfemur -22.8832 11.9396 -11.9574
ltibia 34.7062
lfoot -6.42989 14.0842
ltoes -3.14935
402
root -2.06483 17.393 -6.01879 0.0584949 -31.3609 -1.26849
lowerback 6.34618 -0.766331 -2.47945
upperback 1.63369 -1.15406 1.73732
thorax -1.7873 -0.574771 3.27469
lowerneck -21.7671 -5.04577 -10.8415
upperneck 9.04867 -6.16752 16.0241
head 7.22699 -1.99088 6.35012
rclavicle 2.16178e-015 7.7526e-015
rhumerus 24.7673 -46.259 -20.7643
rradius 96.4308
rwrist 0.668788
rhand -35.3729 4.35517
rfingers 7.12502
rthumb -8.50461 -25.4536
lclavicle 2.16178e-015 7.7526e-015
lhumerus 18.04 48.2403 14.6674
lradius 92.6979
lwrist 18.3356
lhand -29.4316 14.8875
lfingers 7.12502
lthumb -2.76851 44.8493
rfemur -0.921286 -6.72711 18.6315
rtibia 32.0966
rfoot -26.7534 -5.32546
rtoes -11.5796
lfemur -22.6999 10.9019 -11.6867
ltibia 34.4785
lfoot -7.01116 12.9033
ltoes -4.07305
403
root -2.07748 17.3933 -6.08195 -0.0667517 -31.8452 -1.21032
lowerback 6.56237 -0.782609 -2.5227
upperback 1.6691 -1.18113 1.85552
thorax -1.86566 -0.587791 3.42798
lowerneck -21.7926 -4.79541 -10.7747
upperneck 9.3209 -5.84418 15.8527
head 7.26192 -1.84141 6.3296
rclavicle 6.48535e-014 -4.57205e-015
rhumerus 25.0661 -46.5976 -20.8534
rradius 96.6895
rwrist 1.04423
rhand -35.8671 3.9849
rfingers 7.12502
rthumb -8.98154 -25.8039
lclavicle 6.48535e-014 -4.57205e-015
lhumerus 18.4066 47.9573 15.3585
lradius 92.9549
lwrist 18.4283
lhand -29.2476 14.5323
lfingers 7.12502
lthumb -2.59081 44.4963
rfemur -1.19319 -6.66732 18.654
rtibia 32.3607
rfoot -26.5701 -4.91191
rtoes -11.2281
lfemur -22.4786 9.96653 -11.4309
ltibia 34.2274
lfoot -7.34837 11.6823
ltoes -4.31594
404
root -2.09108 17.3976 -6.14196 -0.0717835 -32.3203 -1.23454
lowerback 6.69052 -0.781847 -2.46284
upperback 1.66386 -1.1767 1.96148
thorax -1.94174 -0.584663 3.50672
lowerneck -21.7267 -4.54894 -10.7161
upperneck 9.48639 -5.54013 15.8037
head 7.25683 -1.69746 6.34781
rclavicle -5.82191e-014 2.24627e-014
rhumerus 25.3861 -46.9269 -21.0282
rradius 96.8928
rwrist 1.36182
rhand -36.3222 3.94552
rfingers 7.12502
rthumb -9.42068 -25.8239
lclavicle -5.82191e-014 2.24627e-014
lhumerus 18.9765 47.6098 16.1739
lradius 93.1393
lwrist 18.4367
lhand -28.8199 14.5372
lfingers 7.12502
lthumb -2.17777 44.5058
rfemur -1.46215 -6.57517 18.758
rtibia 32.5268
rfoot -26.443 -4.25849
rtoes -10.5847
lfemur -22.3753 9.10482 -11.1333
ltibia 33.9878
lfoot -7.53223 10.5832
ltoes -5.21727
405
root -2.10362 17.4056 -6.20136 -0.0972771 -32.6823 -1.24933
lowerback 6.82379 -0.804311 -2.33635
upperback 1.67018 -1.1997 2.00448
thorax -2.0094 -0.595742 3.48462
lowerneck -21.6509 -4.29515 -10.5497
upperneck 9.62033 -5.25708 15.764
head 7.2411 -1.55962 6.3466
rclavicle 3.22777e-014 7.95139e-015
rhumerus 25.682 -47.3202 -21.2848
rradius 97.079
rwrist 1.52906
rhand -36.6336 3.94173
rfingers 7.12502
rthumb -9.72118 -25.8139
lclavicle 3.22777e-014 7.95139e-015
lhumerus 19.8011 47.2013 17.0885
lradius 93.1192
lwrist 18.1983
lhand -28.6637 14.2652
lfingers 7.12502
lthumb -2.02692 44.2353
rfemur -1.67439 -6.62188 18.849
rtibia 32.6739
rfoot -26.3265 -3.70048
rtoes -10.5604
lfemur -22.3377 7.97339 -10.8099
ltibia 33.7736
lfoot -7.72844 9.72695
ltoes -6.00929
406
root -2.1137 17.411 -6.2616 -0.141492 -33.081 -1.1751
lowerback 6.95152 -0.797786 -2.31879
upperback 1.62977 -1.19032 2.06806
thorax -2.12195 -0.58871 3.54352
lowerneck -21.8278 -4.02828 -10.1192
upperneck 10.1433 -4.97998 15.2789
head 7.36985 -1.43367 6.15312
rclavicle 5.38458e-014 5.96354e-015
rhumerus 26.0636 -47.6687 -21.5588
rradius 97.1967
rwrist 1.72848
rhand -36.8946 3.90126
rfingers 7.12502
rthumb -9.97298 -25.8425
lclavicle 5.38458e-014 5.96354e-015
lhumerus 20.584 46.6663 18.0777
lradius 92.9923
lwrist 17.9811
lhand -28.5089 13.898
lfingers 7.12502
lthumb -1.87738 43.8694
rfemur -1.97929 -6.61423 18.8881
rtibia 32.8473
rfoot -26.1662 -3.55665
rtoes -11.5969
lfemur -22.3352 6.82658 -10.5649
ltibia 33.5539
lfoot -7.81045 8.92519
ltoes -6.80592
407
root -2.12308 17.4091 -6.32039 -0.15786 -33.5461 -1.11637
lowerback 7.06969 -0.744581 -2.29511
upperback 1.54965 -1.1167 2.16914
thorax -2.27466 -0.548263 3.63286
lowerneck -22.2927 -3.77548 -9.5367
upperneck 11.0344 -4.72802 14.4802
head 7.65869 -1.32422 5.83176
rclavicle -1.10972e-013 5.96354e-015
rhumerus 26.3983 -47.9008 -21.7519
rradius 97.331
rwrist 2.08613
rhand -37.2999 3.7488
rfingers 7.12502
rthumb -10.3639 -25.9758
lclavicle -1.10972e-013 5.96354e-015
lhumerus 21.3515 46.0109 19.1634
lradius 92.7828
lwrist 17.899
lhand -28.3706 13.5646
lfingers 7.12502
lthumb -1.74388 43.5372
rfemur -2.33001 -6.46521 18.9505
rtibia 33.0515
rfoot -26.1027 -3.21931
rtoes -11.186
lfemur -22.2815 5.98609 -10.4081
ltibia 33.333
lfoot -7.77137 8.05428
ltoes -10.0336
408
root -2.13199 17.4096 -6.37362 -0.220014 -34.0654 -1.03754
lowerback 7.18268 -0.656053 -2.26703
upperback 1.49082 -0.996785 2.2176
thorax -2.40756 -0.4854 3.6602
lowerneck -22.1244 -3.46409 -9.30393
upperneck 11.3323 -4.40001 14.3872
head 7.6769 -1.16682 5.81027
rclavicle 4.02539e-015 -8.34896e-015
rhumerus 26.6173 -48.1179 -22.0163
rradius 97.5439
rwrist 2.39894
rhand -37.7047 3.53299
rfingers 7.12502
rthumb -10.7544 -26.1717
lclavicle 4.02539e-015 -8.34896e-015
lhumerus 22.3074 45.3653 20.4413
lradius 92.6591
lwrist 17.7609
lhand -27.9728 13.6532
lfingers 7.12502
lthumb -1.35969 43.6287
rfemur -2.60671 -6.33307 18.9384
rtibia 33.2842
rfoot -25.9706 -2.54581
rtoes -9.24885
lfemur -22.2026 5.24474 -10.2667
ltibia 33.1189
lfoot -7.62906 7.17465
ltoes -12.3072
